<?xml version="1.0" encoding="utf-8"?>
<!-- Generator: Adobe Illustrator 23.0.5, SVG Export Plug-In . SVG Version: 6.00 Build 0)  -->
<svg version="1.1" id="Capa_1" xmlns="http://www.w3.org/2000/svg" xmlns:xlink="http://www.w3.org/1999/xlink" x="0px" y="0px"
	 viewBox="0 0 400 400" style="enable-background:new 0 0 400 400;" xml:space="preserve">
<style type="text/css">
	.st0{fill:#FF6600;}
</style>
<g>
	<g>
		<g>
			<path class="st0" d="M400,65.78c-2.26,3.01-4.92,5.8-6.73,9.06c-22.44,40.3-45.15,80.46-66.91,121.13
				c-9.25,17.27-22.79,24.34-41.72,24.23c-44.72-0.27-89.45,0.06-134.17-0.24c-6.54-0.04-10.26,1.77-12.88,7.83
				c-3.17,7.3-7.41,14.14-11.07,21.23c-4.44,8.63-3.02,11.05,6.8,11.06c46.5,0.06,93,0.03,139.51,0.03c25.47,0,50.95,0,76.42,0
				c3.18,0,6.37,0,9.92,0c0,13.66,0,26.24,0,39.8c-3.73,0-6.92,0-10.1,0c-74.94,0-149.87,0.03-224.81-0.01
				c-36.43-0.02-55.45-33.37-37.13-64.99c7.26-12.54,14.78-24.93,21.64-37.69c1.51-2.81,2.07-7.5,0.79-10.26
				c-22.02-47.12-44.48-94.05-66.6-141.13c-2.25-4.79-5.03-6.36-10.14-6.27C21.88,39.75,10.94,39.3,0,39.11C0,26.07,0,13.04,0,0
				c21.93,0,43.85,0,65.78,0c4.76,10.48,9.99,20.79,14.13,31.51c2.64,6.85,6.42,8.96,13.74,8.94c93.78-0.27,187.56-0.06,281.33-0.32
				c11.93-0.03,20.75,3.18,25.02,14.98C400,58.67,400,62.22,400,65.78z"/>
			<circle class="st0" cx="120.89" cy="360" r="40"/>
			<circle class="st0" cx="320.89" cy="360" r="40"/>
		</g>
	</g>
</g>
</svg>
